<?xml version="1.0" encoding="UTF-8"?>
<svg xmlns="http://www.w3.org/2000/svg" version="1.1" viewBox="0 0 31.9 32">
  <defs>
    <style>
      .cls-1 {
        fill: #c78f44;
      }

      .cls-2 {
        fill: #f0c366;
      }

      .cls-3 {
        fill: #efe8d8;
      }

      .cls-4 {
        fill: #fcecbb;
      }

      .cls-5 {
        fill: #0d3d47;
      }

      .cls-6 {
        fill: #66d6ea;
      }

      .cls-7 {
        fill: #a6def9;
      }

      .cls-8 {
        fill: #9dc03e;
      }

      .cls-9 {
        fill: #1f6e97;
      }

      .cls-10 {
        fill: #537e25;
      }
    </style>
  </defs>
  <!-- Generator: Adobe Illustrator 28.7.1, SVG Export Plug-In . SVG Version: 1.2.0 Build 142)  -->
  <g>
    <g id="Camada_1">
      <g>
        <g>
          <path class="cls-5" d="M3,14.6c0,7.6,12.4,14,13.2,13.8,4.3-1.2,13.2-6.2,13.2-13.8S23.5.8,16.2.8,3,7,3,14.6Z"/>
          <polygon class="cls-10" points="27.7 19.4 8.6 19.4 8.6 13.4 28.7 13.4 27.7 19.4"/>
          <path class="cls-5" d="M24.7,4.1c-2.3-2-8-2.9-8.3-3-1.4.3-2.9.2-4.3.7-2.3.7-4.2,2.1-5.9,3.9-3.5,4-4.2,9.6-1.6,14.6,1,1.8,2.3,3.3,3.9,4.7,2.3,2,4.6,4,6.9,6,.7.6,1,.6,1.7,0,2.3-2,4.6-4,6.9-6,1.5-1.3,2.9-2.8,3.9-4.7,3.1-5.8,1.6-12.1-3.1-16.2ZM18.8,2.8c5.2,1.2,8.5,5.9,8.8,9.8-.7-.3-1.4-.6-2.1-.9-.4-.2-.6-.1-.9.2-.8,1.1-1.6,2.2-2.4,3.3-.4-.3-.7-.6-1-.9-.2-.2-.4-.2-.6,0-1,.7-2,1.4-3,2.1-.3.2-.5.2-.8,0-.4-.5-.8-.6-1.4-.2-.5.4-1.2.6-1.8.8,1.3-1.1,1.9-2.6,1.8-4.3,0-1.7-.8-3.1-2.5-3.8-.1,0-.2-.2-.3-.3-1.2-1.9-2.5-2.5-4.8-2.1,0,0-.2,0-.3,0,2.1-2.8,6.6-4.8,11.2-3.8ZM8.4,7.9c.5-.4,1-.3,1.5-.1,1.2.4,1.8,1.3,2,2.5,0,.1,0,.3,0,.4,0,0,0,0,0,0,.5-.6.9-.6,1.4,0,.9,1.1.9,3.4,0,4.5-.4.6-1.1.8-1.8.9q1.2-1.6,1.2-2.2c-1,0-1.6.6-2.1,1.5-.2-1.1.5-1.9,2.1-2.5-.2-.5-.5-.9-.7-1.4-.7.5-1.5,1.2-2.4,1.9,0-1.2.1-2.2-.6-3-.5.5-.7,1.2-.7,2.8-.3-.3-.6-.6-.8-1-.7-1.3-.2-3.2.9-4.2ZM7.5,20.1c-.9-.5-1.9-1.1-2.3-2.3.8.4,1.6.7,2.3,1.1.2.1.2.7.2,1,0,0-.1,0-.2,0ZM9.3,19.2c0,1.3,0,2.6,0,4,0,.1,0,.2,0,.4,0,0-.1,0-.2,0,0-.5,0-.9-.1-1.4,0-1.3-.2-2.7-.3-4,0-.2-.2-.4-.3-.6-.4-.4-.7-.8-1.2-1.2.8-.2.9.5,1.5.6,0-.5,0-1,0-1.5,0-.4-.3-1,.5-1.3v2.9c0,0,.1,0,.2,0,.3-.3.7-.6,1.1-.9.1.1.2.2.4.3-.4.4-.7.6-1.1.9-.5.4-.7,1-.6,1.7ZM15.3,20.6c0,0,0,.2,0,.2-.2,0-.4,0-.6,0-1.1,0-2.2,0-3.3,0-.9,0-.9,0-1-.9,0-.3,0-.5,0-.9,1.7.5,3.3,1,4.9,1.5ZM12.5,26.6c-.5-.7.5-1.1.2-1.8-.5.2-1,.3-1.5.5-.2-.1-.4-.3-.6-.5.4-.8,1.7-1.1,2.6-.8,0,0,.2.2.2.3,0,.8-.2,1.6-.9,2.2ZM21.6,25.1c0,.2-.3.4-.4.4-.8-.3-.9.3-1.2.7-.2.3-.3.6-.5.8-.1-1.2.7-2.3,2-2.7,0,.3.1.5,0,.7ZM26.1,17.3c-1.1.3-2.2.8-3.2,1.3-1.2.5-2.3.4-3.6.3-.9,0-1.8-.1-2.8-.1-.2,0-.4.2-.6.3.2.1.3.4.5.4,1.3.2,2.7.4,4,.6,1,.2,2,.4,2.9.6.3,0,.6.2.8.4.7.4.7.8.2,1.3-.5.5-1,1-1.6,1.5,0,0,0,0,0,0-.5-1-.6-1.1-1.6-.6-.8.4-1.6.8-2.2,1.4-.9.8-1,2-1,3.2,0,.2,0,.4-.2.6-.4.4-.8.8-1.3,1.1-.1.1-.5.1-.6,0-.8-.7-1.6-1.4-2.5-2.1.9-1.1,1.2-2.3,1.2-3.6,0-.5-.2-.7-.6-.8-1.2-.4-2.4-.4-3.7.2-.2-.5,0-.8.4-.9.9-.1,1.7-.2,2.6-.3.7,0,1.4,0,2.1-.1.4,0,.9-.2,1-.8,0-.5-.1-1-.6-1.2-1-.4-2-.7-3.1-1.1-.5-.2-1.1-.3-1.6-.5,0,0,0-.1,0-.2.3,0,.6,0,.9,0,2.7,0,5.4,0,8-.4,1.5-.2,3-.6,4.2-1.7.7-.6,1.5-1.2,2.2-1.8.4-.4.7-.1,1,.1.1.1.1.4.2.7,0,0,0,.1,0,.2.1,1.2-.5,1.8-1.6,2.1Z"/>
          <path class="cls-3" d="M18.8,2.8c-4.5-1.1-9.1,1-11.2,3.8.1,0,.2,0,.3,0,2.2-.4,3.6.2,4.8,2.1,0,.1.2.2.3.3,1.6.7,2.4,2.1,2.5,3.8,0,1.7-.5,3.1-1.8,4.3.6-.3,1.2-.5,1.8-.8.6-.4,1-.3,1.4.2.2.3.5.3.8,0,1-.7,2-1.4,3-2.1.3-.2.4-.2.6,0,.3.3.7.6,1,.9.8-1.1,1.7-2.2,2.4-3.3.3-.4.4-.5.9-.2.7.4,1.4.6,2.1.9-.4-3.9-3.7-8.6-8.8-9.8Z"/>
          <path class="cls-1" d="M11,16.6c-.4.4-.7.6-1.1.9-.5.4-.7,1-.6,1.7,0,1.3.3,2.7.3,4,0,.1,0,1,0,1.1,0,0-.3-.3-.4-.3,0-.5-.1-1.3-.2-1.8,0-1.3-.2-2.7-.3-4,0-.2-.2-.4-.3-.6-.4-.4-.7-.8-1.2-1.2.8-.2.9.5,1.5.6,0-.5,0-1,0-1.5,0-.4-.3-1,.5-1.3v2.9c0,0,.1,0,.2,0,.3-.3.7-.6,1.1-.9.1.1.2.2.4.4Z"/>
          <path class="cls-10" d="M15.3,20.5c0,0,0,.2,0,.2-.2,0-.4,0-.6,0-1.1,0-2.2,0-3.3,0-.9,0-.9,0-1-.9,0-.3,0-.5,0-.9,1.7.5,3.3,1,4.9,1.5Z"/>
          <path class="cls-10" d="M7.8,20c0,0-.1,0-.2,0-2.1-.9-2.7-2.2-2.5-3.2-.3-1.1,1.9.6,2.6,1,.2.1,0,1.8.1,2.1Z"/>
          <path class="cls-8" d="M13.5,15.1c-.4.6-1.1.8-1.8.9q1.2-1.6,1.2-2.2c-1,0-1.6.6-2.1,1.5-.2-1.1.5-1.9,2.1-2.5-.2-.5-.5-.9-.7-1.4-.7.5-1.5,1.2-2.4,1.9,0-1.2.1-2.2-.6-3-.5.5-.7,1.2-.7,2.8-.3-.3-.6-.6-.8-1-.7-1.3-.2-3.2.9-4.2.5-.4,1-.3,1.5-.1,1.2.4,1.8,1.3,2,2.5,0,.1,0,.3,0,.4,0,0,0,0,0,0,.5-.6.9-.6,1.4,0,.9,1.1.9,3.4,0,4.5Z"/>
          <path class="cls-8" d="M21.6,25.1c0,.2-.3.4-.4.4-.8-.3-.9.3-1.2.7-.2.3-.3.6-.5.8-.1-1.2.7-2.3,2-2.7,0,.3.1.5,0,.7Z"/>
          <path class="cls-8" d="M13.4,24.3c0,.8-.2,1.6-.9,2.2-.5-.7.5-1.1.2-1.8-.5.2-1,.3-1.5.5-.2-.1-.4-.3-.6-.5.4-.8,1.7-1.1,2.6-.8,0,0,.2.2.2.3Z"/>
          <path class="cls-6" d="M16.6,18.7c-.2,0-.4.2-.6.3.2.1.3.4.5.4,1.3.2,2.7.4,4,.6,1,.2,2,.4,2.9.6.3,0,.6.2.8.4.7.4.7.8.2,1.3-.5.5-1,1-1.6,1.5,0,0,0,0,0,0-.5-1-.6-1.1-1.6-.6-.8.4-1.6.8-2.2,1.4-.9.8-1,2-1,3.2,0,.2,0,.4-.2.6-.4.4-.8.8-1.3,1.1-.1.1-.5.1-.6,0-.8-.7-1.6-1.4-2.5-2.1.9-1.1,1.2-2.3,1.2-3.6,0-.5-.2-.7-.6-.8-1.2-.4-2.4-.4-3.7.2-.2-.5,0-.8.4-.9.9-.1,1.7-.2,2.6-.3.7,0,1.4,0,2.1-.1.4,0,.9-.2,1-.8,0-.5-.1-1-.6-1.2-1-.4-2-.7-3.1-1.1-.5-.2.2,0-.4-.1"/>
          <path class="cls-6" d="M13.5,18.6"/>
          <g>
            <path class="cls-5" d="M15.3,6.5s0,0-.1,0c-.1,0-.2,0-.3-.2-.2-.4-.4-.6-.7-.7-.6-.1-1.2.5-1.2.5-.1.1-.3.1-.4,0-.1-.1-.1-.3,0-.4,0,0,.9-.8,1.7-.6.3,0,.5.2.7.3.2.2.3.4.5.6,0,0,0,0,0,0,0,.1,0,.3-.2.3Z"/>
            <path class="cls-5" d="M17.5,4.8c0,.2-.2.3-.4.2,0,0-.8-.2-1.3.1-.2.2-.4.5-.4.9,0,0,0,0,0,0,0,.1-.1.3-.3.3h0c-.2,0-.3-.1-.3-.3,0-.3,0-.5,0-.7,0-.3.3-.5.5-.7.7-.5,1.8-.3,1.8-.2.2,0,.3.2.2.4Z"/>
          </g>
          <g>
            <path class="cls-5" d="M18.8,9.5s0,0-.1,0c0,0-.2,0-.2-.2-.1-.3-.3-.5-.5-.6-.5-.2-1,.2-1,.2-.1,0-.3,0-.3,0,0-.1,0-.3,0-.3,0,0,.8-.5,1.4-.3.2,0,.4.2.5.4.1.1.2.3.3.6,0,0,0,0,0,0,0,.1,0,.2-.2.2Z"/>
            <path class="cls-5" d="M20.7,8.5c0,.1-.2.2-.3.1,0,0-.6-.3-1,0-.2.1-.3.3-.4.7,0,0,0,0,0,0,0,.1-.1.2-.3.2h0c-.1,0-.2-.1-.2-.3,0-.2,0-.4.2-.5.1-.2.3-.4.5-.5.6-.3,1.4,0,1.5,0,.1,0,.2.2.1.3Z"/>
          </g>
          <path class="cls-10" d="M4.6,11s.5-.9.9-1.6c.1.9.3,1.7.3,2.4,0,.2-.2.3-.3.5-.3.5-.2.7.3.9.5.3,1.1.6,1.6.9.5.4.6.9.3,1.8-.3-.4-1.1-.1-1.3-.3-.2-.2-1-.5-1.4-.7s-.8-1.3-.8-2.1c0,0,.2-1.3.4-1.7"/>
        </g>
        <circle class="cls-2" cx="21.7" cy="13.7" r="3.3"/>
        <circle class="cls-4" cx="21.7" cy="13.7" r="2.2"/>
        <path class="cls-5" d="M27.7,12.6c-.7-.3-1.4-.6-2.1-.9-.4-.2-.6-.1-.9.2-.8,1.1-1.6,2.2-2.4,3.3-.4-.3-.7-.6-1-.9-.2-.2-.4-.2-.6,0-1,.7-2,1.4-3,2.1l2,1.1,3.4-.7,1-.6,3.6-3.5"/>
        <path class="cls-8" d="M5.2,10.8"/>
        <path class="cls-8" d="M5.5,9.4c.1.9.3,1.2.4,1.9,0,.2,0,.5,0,.7.1.3,0,.3.4.5s.5.9,1,1.3c.5.4.6,1.2.3,2.1-.3-.4-.7-.6-1-.8-.2-.2-.6-.4-1-.6-1.9-.9-1.3-2.1-.6-3.6"/>
        <path class="cls-9" d="M16.1,28.2c-.7-1.5-.8-3.6.5-4.7.5-.4,1.2-.8,1.7-1.1.4-.3.7-.5.4-1,0,0,0,0,0,0,0,0,0,0,0,0,.1.1.3.3.3.4,0,.2,0,.4-.1.5-.5.7-1.3,1.1-1.9,1.7-.9.8-1,2.1-1,3.3,0,.3,0,.7.1,1,0,0,0,0,0,0,0,0,0,0,0,0h0Z"/>
        <path class="cls-7" d="M18.8,20.3c.6,0,1.2,0,1.7,0,.4,0,.8.1,1.2.4.4.3.5.8.1,1.1-.5.5-1.1.6-1.8.5,0,0,0,0,0,0,.4-.3.8-.4,1.2-.7.1-.1.2-.2.3-.3,0,0,0,0,0,0,0-.2-.3-.3-.5-.4-.3-.1-.7-.2-1.1-.3-.4,0-.7-.1-1.1-.2h0Z"/>
        <path class="cls-5" d="M5.5,9c0,0-.8,3.9,2.5,5.5,0,0,.3-.5.4-.5s-1.7-2.9-1.8-4-1-1-1-1Z"/>
        <path class="cls-5" d="M8.7,16s-1.7-1.8-3.6-.7c0,0,.1.3.1.3s2.1.2,2.6.5.9-.2.9-.2Z"/>
      </g>
    </g>
  </g>
</svg>